<svg width="135" height="21" viewBox="0 0 135 21" fill="none" xmlns="http://www.w3.org/2000/svg">
<path fill-rule="evenodd" clip-rule="evenodd" d="M13.1716 4H4V13.1716L13.1716 4ZM6.82848 16H16V6.82848L6.82848 16ZM0 0H4H16H20V4V16V20H16H4H0V16V4V0Z" fill="black"/>
<path d="M34.444 20C31.224 20 29.684 18.488 29.684 15.296V7.848H25.232V4.992H29.684V1.296H33.016V4.992H38.896V7.848H33.016V15.1C33.016 16.5 33.66 17.144 35.032 17.144H38.896V20H34.444ZM42.0211 20V17.144H45.6051V7.848H42.0211V4.992H47.8731L48.0971 7.764C48.6291 5.972 49.8331 4.992 51.7091 4.992H55.1251V7.932H52.0731C49.9451 7.932 48.9371 9.024 48.9371 11.208V17.144H53.4451V20H42.0211ZM61.8061 20.336C59.0341 20.336 56.6821 18.712 56.6821 16.024C56.6821 13.56 58.4461 12.188 61.1901 11.628L65.8381 10.648C65.8381 8.604 64.9141 7.624 63.2061 7.624C61.5261 7.624 60.6581 8.38 60.3501 9.752L56.9341 9.528C57.4941 6.588 59.7341 4.656 63.2061 4.656C67.0421 4.656 69.1701 6.952 69.1701 10.872V16.164C69.1701 16.92 69.4501 17.144 70.1221 17.144H70.9061V20C70.6821 20.056 70.0941 20.112 69.5341 20.112C67.6861 20.112 66.6221 19.272 66.2581 17.788C65.5861 19.3 63.8781 20.336 61.8061 20.336ZM62.2261 17.536C64.4101 17.536 65.8381 16.276 65.8381 14.232V13.196L62.1141 13.952C60.7421 14.232 60.1541 14.82 60.1541 15.8C60.1541 16.864 60.8541 17.536 62.2261 17.536ZM73.5552 20V4.992H76.5512L76.6352 7.708C77.3912 5.636 79.0432 4.656 81.0032 4.656C84.1672 4.656 85.7632 6.98 85.7632 10.284V20H82.4312V11.18C82.4312 8.688 81.7312 7.512 79.9392 7.512C78.2032 7.512 76.8872 8.828 76.8872 11.348V20H73.5552Z" fill="#9040B8"/>
<path d="M88.6643 20V16.864L97.0923 7.848H88.9443V4.992H101.236V8.128L92.7803 17.144H101.488V20H88.6643ZM110.857 20.336C106.629 20.336 103.829 17.256 103.829 12.496C103.829 7.68 106.657 4.656 110.801 4.656C114.637 4.656 117.745 7.4 117.745 12.58V13.336H107.357C107.553 15.996 108.897 17.312 110.857 17.312C112.397 17.312 113.461 16.528 113.937 15.156L117.437 15.464C116.513 18.348 114.189 20.336 110.857 20.336ZM114.105 11.012C113.797 8.828 112.537 7.68 110.801 7.68C109.009 7.68 107.777 8.828 107.413 11.012H114.105ZM120.562 20V4.992H123.558L123.642 7.708C124.398 5.636 126.05 4.656 128.01 4.656C131.174 4.656 132.77 6.98 132.77 10.284V20H129.438V11.18C129.438 8.688 128.738 7.512 126.946 7.512C125.21 7.512 123.894 8.828 123.894 11.348V20H120.562Z" fill="black"/>
</svg>
